<svg xmlns="http://www.w3.org/2000/svg" xmlns:xlink="http://www.w3.org/1999/xlink" viewBox="0 0 56 78" width="56" height="78"><defs><path d="M30.52 61.69L33.73 46.48L27.32 46.48L20.91 46.48L24.12 61.69L27.32 76.9L30.52 61.69Z" id="a"/><path d="M57 -1C57 -1 57 -1 57 -1C57 42.2 57 66.2 57 71C57 71 57 71 57 71C22.2 71 2.87 71 -1 71C-1 71 -1 71 -1 71C-1 27.8 -1 3.8 -1 -1C-1 -1 -1 -1 -1 -1C33.8 -1 53.13 -1 57 -1Z" id="b"/><path d="M55.66 28.75C55.66 43.66 43.58 55.75 28.66 55.75C13.75 55.75 1.66 43.66 1.66 28.75C1.66 13.84 13.75 1.75 28.66 1.75C43.58 1.75 55.66 13.84 55.66 28.75Z" id="c"/><path d="M54.33 27.58C54.33 42.5 42.24 54.58 27.33 54.58C12.42 54.58 0.33 42.5 0.33 27.58C0.33 12.67 12.42 0.58 27.33 0.58C42.24 0.58 54.33 12.67 54.33 27.58Z" id="d"/><path d="M45 27.57C45 38.02 37.08 46.48 27.32 46.48C17.56 46.48 9.64 38.02 9.64 27.57C9.64 17.12 17.56 8.66 27.32 8.66C37.08 8.66 45 17.12 45 27.57Z" id="e"/><path d="M36.66 27.67C36.66 32.87 32.45 37.08 27.25 37.08C22.05 37.08 17.83 32.87 17.83 27.67C17.83 22.47 22.05 18.25 27.25 18.25C32.45 18.25 36.66 22.47 36.66 27.67Z" id="f"/></defs><g><g><g><use xlink:href="#a" fill="#030303"/></g><g><use xlink:href="#b" fill-opacity="0"/><g><use xlink:href="#b" fill-opacity="0" stroke="#000" stroke-opacity="0"/></g></g><g><use xlink:href="#c" fill="#7f0000"/><g><use xlink:href="#c" fill-opacity="0" stroke="#4788c7" stroke-width="0"/></g></g><g><use xlink:href="#d" fill="#c00"/><g><use xlink:href="#d" fill-opacity="0" stroke="#4788c7" stroke-width="0"/></g></g><g><use xlink:href="#e" fill="#fff"/><g><use xlink:href="#e" fill-opacity="0" stroke="#000" stroke-width="0"/></g></g><g><use xlink:href="#f" fill="#c00"/><g><use xlink:href="#f" fill-opacity="0" stroke="#4788c7" stroke-width="0"/></g></g></g></g></svg>